<?xml version="1.0" encoding="UTF-8" standalone="no"?>
<!-- Created with Inkscape (http://www.inkscape.org/) -->

<svg
   xmlns:dc="http://purl.org/dc/elements/1.1/"
   xmlns:cc="http://creativecommons.org/ns#"
   xmlns:rdf="http://www.w3.org/1999/02/22-rdf-syntax-ns#"
   xmlns:svg="http://www.w3.org/2000/svg"
   xmlns="http://www.w3.org/2000/svg"
   xmlns:sodipodi="http://sodipodi.sourceforge.net/DTD/sodipodi-0.dtd"
   xmlns:inkscape="http://www.inkscape.org/namespaces/inkscape"
   width="22mm"
   height="22mm"
   viewBox="0 0 22 22"
   version="1.1"
   id="svg8"
   sodipodi:docname="y_logo3.svg"
   inkscape:version="0.92.1 r15371">
  <defs
     id="defs2" />
  <sodipodi:namedview
     id="base"
     pagecolor="#ffffff"
     bordercolor="#666666"
     borderopacity="1.0"
     inkscape:pageopacity="0.0"
     inkscape:pageshadow="2"
     inkscape:zoom="5.6"
     inkscape:cx="108.3721"
     inkscape:cy="63.637538"
     inkscape:document-units="mm"
     inkscape:current-layer="layer1"
     showgrid="false"
     inkscape:window-width="1920"
     inkscape:window-height="996"
     inkscape:window-x="1912"
     inkscape:window-y="-8"
     inkscape:window-maximized="1"
     fit-margin-top="0"
     fit-margin-left="0"
     fit-margin-right="0"
     fit-margin-bottom="0" />
  <metadata
     id="metadata5">
    <rdf:RDF>
      <cc:Work
         rdf:about="">
        <dc:format>image/svg+xml</dc:format>
        <dc:type
           rdf:resource="http://purl.org/dc/dcmitype/StillImage" />
        <dc:title></dc:title>
      </cc:Work>
    </rdf:RDF>
  </metadata>
  <g
     inkscape:label="Layer 1"
     inkscape:groupmode="layer"
     id="layer1"
     transform="translate(-0.78980818,-14.048014)">
    <path
       style="font-style:normal;font-variant:normal;font-weight:bold;font-stretch:normal;font-size:22.57777786px;line-height:1.25;font-family:'OCR A Extended';-inkscape-font-specification:'OCR A Extended Bold';letter-spacing:0px;word-spacing:0px;opacity:1;fill:#000000;fill-opacity:0.11059905;stroke:none;stroke-width:0.27474061"
       d="m 8.3851253,14.825916 c -0.572917,0 -1.029671,0.137111 -1.369839,0.410589 -0.331219,0.273477 -0.496821,0.663722 -0.496821,1.171608 0,0.49226 0.165602,0.875571 0.496821,1.149049 0.340168,0.273477 0.796922,0.410088 1.369839,0.410088 0.581869,0 1.0428821,-0.140828 1.3830531,-0.42212 0.3401696,-0.289105 0.5100286,-0.668197 0.5100286,-1.137017 0,-0.476631 -0.169859,-0.859442 -0.5100286,-1.148547 -0.331216,-0.289104 -0.7922311,-0.43365 -1.3830531,-0.43365 z m 5.4380147,0 c -0.537112,0 -0.98903,0.129176 -1.356057,0.387027 -0.358072,0.250036 -0.537024,0.648215 -0.537024,1.19517 0,0.531328 0.178952,0.926292 0.537024,1.184142 0.367027,0.250037 0.818945,0.374995 1.356057,0.374995 0.572918,0 1.03393,-0.140828 1.383051,-0.42212 0.349122,-0.28129 0.523814,-0.660384 0.523814,-1.137017 0,-0.492259 -0.174692,-0.878787 -0.523814,-1.160078 -0.34017,-0.281292 -0.801182,-0.422119 -1.383051,-0.422119 z m -10.6709807,4.746092 5.9428711,9.657621 v 5.978864 h 3.7741036 v -6.085645 l 5.942297,-9.55084 h -4.092296 l -3.73734,6.438582 -3.7126437,-6.438582 z"
       id="text4487-9"
       inkscape:connector-curvature="0" />
    <path
       style="font-style:normal;font-variant:normal;font-weight:bold;font-stretch:normal;font-size:22.57777786px;line-height:1.25;font-family:'OCR A Extended';-inkscape-font-specification:'OCR A Extended Bold';letter-spacing:0px;word-spacing:0px;opacity:1;fill:#ffa637;fill-opacity:1;stroke:none;stroke-width:0.27474061"
       d="m 9.4816744,14.829176 c -0.5729171,0 -1.0296711,0.137111 -1.3698391,0.410589 -0.331219,0.273477 -0.496821,0.663722 -0.496821,1.171608 0,0.49226 0.165602,0.875571 0.496821,1.149049 0.340168,0.273477 0.796922,0.410088 1.3698391,0.410088 0.5818686,0 1.0428816,-0.140828 1.3830526,-0.42212 0.34017,-0.289105 0.51003,-0.668197 0.51003,-1.137017 0,-0.476631 -0.16986,-0.859442 -0.51003,-1.148547 -0.331216,-0.289104 -0.792231,-0.43365 -1.3830526,-0.43365 z m 5.4380146,0 c -0.537112,0 -0.98903,0.129176 -1.356057,0.387027 -0.358072,0.250036 -0.537024,0.648215 -0.537024,1.19517 0,0.531328 0.178952,0.926292 0.537024,1.184142 0.367027,0.250037 0.818945,0.374995 1.356057,0.374995 0.572918,0 1.03393,-0.140828 1.383051,-0.42212 0.349122,-0.28129 0.523814,-0.660384 0.523814,-1.137017 0,-0.492259 -0.174692,-0.878787 -0.523814,-1.160078 -0.34017,-0.281292 -0.801182,-0.422119 -1.383051,-0.422119 z m -10.6709807,4.746092 5.9428707,9.657621 v 5.978864 h 3.774104 v -6.085645 l 5.942297,-9.55084 H 15.815684 L 12.078345,26.01385 8.3657003,19.575268 Z"
       id="text4487"
       inkscape:connector-curvature="0" />
    <flowRoot
       xml:space="preserve"
       id="flowRoot4489"
       style="font-style:normal;font-variant:normal;font-weight:normal;font-stretch:normal;font-size:40px;line-height:1.25;font-family:arial;-inkscape-font-specification:arial;letter-spacing:0px;word-spacing:0px;fill:#000000;fill-opacity:1;stroke:none"
       transform="scale(0.26458333)"><flowRegion
         id="flowRegion4491"><rect
           id="rect4493"
           width="61.42857"
           height="80"
           x="108.57143"
           y="211.09111" /></flowRegion><flowPara
         id="flowPara4495"></flowPara></flowRoot>    <text
       xml:space="preserve"
       style="font-style:normal;font-variant:normal;font-weight:normal;font-stretch:normal;font-size:3.21919227px;line-height:1.25;font-family:'Open Sans';-inkscape-font-specification:'Open Sans';letter-spacing:0px;word-spacing:0px;fill:#ffffff;fill-opacity:1;stroke:none;stroke-width:0.08047975"
       x="-1.0195082"
       y="65.277367"
       id="text4506"
       transform="matrix(0.53239,-0.85803661,0.83112261,0.5388275,0,0)"><tspan
         sodipodi:role="line"
         id="tspan4504"
         x="-1.0195082"
         y="65.277367"
         style="font-style:normal;font-variant:normal;font-weight:bold;font-stretch:normal;font-family:'Open Sans';-inkscape-font-specification:'Open Sans Bold';fill:#ffffff;fill-opacity:1;stroke-width:0.08047975">Y*PSIL0N</tspan></text>
    <g
       aria-label="Ð"
       style="font-style:normal;font-variant:normal;font-weight:normal;font-stretch:normal;font-size:10.58333302px;line-height:1.25;font-family:arial;-inkscape-font-specification:arial;letter-spacing:0px;word-spacing:0px;fill:#000000;fill-opacity:1;stroke:none;stroke-width:0.26458332"
       id="text4499"
       transform="matrix(1.252433,0,0,1.252433,-12.321424,-5.5029153)" />
    <flowRoot
       xml:space="preserve"
       id="flowRoot4522"
       style="font-style:normal;font-variant:normal;font-weight:normal;font-stretch:normal;font-size:40px;line-height:1.25;font-family:'Open Sans';-inkscape-font-specification:'Open Sans';letter-spacing:0px;word-spacing:0px;fill:#000000;fill-opacity:1;stroke:none"
       transform="scale(0.26458333)"><flowRegion
         id="flowRegion4524"><rect
           id="rect4526"
           width="86.620583"
           height="135.48671"
           x="93.43911"
           y="97.593658" /></flowRegion><flowPara
         id="flowPara4528"></flowPara></flowRoot>    <rect
       style="fill:#ffffff;fill-opacity:1;stroke:none;stroke-width:0.22047654;stroke-linejoin:round;stroke-miterlimit:4;stroke-dasharray:none;stroke-opacity:1;paint-order:markers stroke fill"
       id="rect4530"
       width="1.6062962"
       height="0.481089"
       x="10.251092"
       y="-57.066101"
       transform="matrix(0.45666376,0.88963937,-0.94805647,-0.31810207,0,0)" />
  </g>
</svg>
